<svg width="1000" height="297" viewBox="0 0 1000 297" fill="none" xmlns="http://www.w3.org/2000/svg">
<path d="M179.415 170.641C179.377 176.797 173.713 181.742 166.761 181.685C159.828 181.628 154.239 176.589 154.296 170.433C154.353 164.276 160.017 159.332 166.95 159.389C173.884 159.445 179.472 164.484 179.415 170.641Z" fill="white"/>
<path d="M105.839 159.048C106.351 159.578 106.881 160.109 107.449 160.601C103.433 159.237 99.8719 156.945 96.9926 153.971C92.162 149.046 89.2069 142.245 89.2827 134.763C89.3395 127.28 92.3894 120.518 97.3146 115.649C100.251 112.751 103.869 110.497 107.904 109.189C107.336 109.682 106.786 110.212 106.237 110.743H106.218C100.023 116.88 96.1591 125.405 96.0833 134.82C95.9886 144.234 99.7204 152.816 105.82 159.048H105.839Z" fill="white"/>
<path d="M213.87 116.388C209.04 111.368 202.334 108.242 194.908 108.186L129.8 107.636C122.375 107.579 115.612 110.591 110.725 115.517H110.706C105.799 120.442 102.749 127.28 102.674 134.858C102.617 142.435 105.572 149.311 110.384 154.312C115.214 159.294 121.92 162.42 129.346 162.496C136.771 162.553 143.534 159.541 148.44 154.634C153.328 149.728 156.416 144.462 156.491 134.933C156.491 133.475 157.211 131.77 158.12 130.785C159.181 129.61 160.621 129.061 162.061 129.061H162.326C163.766 129.08 165.167 129.686 166.209 130.842C167.1 131.846 167.782 133.532 167.763 135.028C167.687 144.557 170.68 149.861 175.491 154.862C180.322 159.863 187.028 162.988 194.454 163.045C201.898 163.102 208.642 160.09 213.548 155.184C218.455 150.259 221.523 143.42 221.58 135.843C221.637 128.265 218.701 121.389 213.87 116.388ZM143.648 142.056C139.499 142.018 136.146 138.533 136.184 134.27L143.705 134.327L143.78 126.617C147.929 126.655 151.282 130.141 151.244 134.403C151.225 138.665 147.815 142.075 143.648 142.056ZM205.611 142.568C201.463 142.53 198.11 139.044 198.129 134.782L205.668 134.858L205.744 127.129C209.892 127.167 213.245 130.652 213.207 134.915C213.188 139.177 209.76 142.605 205.611 142.568Z" fill="white"/>
<path d="M231.928 25.403L231.891 148.098C231.891 153.08 230.887 157.873 229.106 162.249C227.249 166.795 224.522 170.887 221.188 174.297L218.573 176.665C215.808 178.995 212.701 180.927 209.348 182.348C206.412 183.598 202.718 184.905 199.933 184.886H197.016L188.757 184.791C188.852 184.716 188.965 184.64 189.06 184.526C189.874 183.768 192.186 181.533 193.701 179.033C193.701 179.014 193.72 178.976 193.739 178.957C194.781 177.214 195.387 175.13 195.709 173.577C195.728 173.501 195.747 173.406 195.766 173.331C195.823 173.009 195.879 172.687 195.936 172.384C195.993 171.986 196.05 171.607 196.088 171.247C197.831 171.247 199.763 171.133 201.79 170.792C202.225 170.717 202.68 170.641 203.135 170.527C203.381 170.489 203.646 170.432 203.892 170.376C204.764 170.167 205.654 169.921 206.545 169.618C207.113 169.428 207.719 169.22 208.306 168.993C208.59 168.879 208.893 168.765 209.197 168.633C209.784 168.387 210.352 168.121 210.939 167.837C211.186 167.705 211.432 167.591 211.678 167.458C211.962 167.307 212.227 167.155 212.512 167.004C212.644 166.947 212.777 166.871 212.891 166.795C213.231 166.587 213.572 166.397 213.913 166.17L214.993 165.488C216.13 164.712 217.266 163.859 218.384 162.874C218.763 162.552 219.123 162.211 219.483 161.87C219.862 161.529 220.222 161.169 220.581 160.809H220.6C220.809 160.601 221.017 160.374 221.244 160.146C221.68 159.673 222.154 159.142 222.627 158.536C223.347 157.646 224.105 156.604 224.863 155.41C225.09 155.013 225.336 154.615 225.564 154.179C225.753 153.857 225.942 153.516 226.113 153.175C226.189 153.024 226.264 152.872 226.34 152.72C226.549 152.285 226.757 151.83 226.965 151.357C227.136 150.959 227.325 150.523 227.496 150.087C227.534 149.955 227.59 149.822 227.647 149.671C227.837 149.159 228.026 148.629 228.197 148.079C228.386 147.492 228.557 146.886 228.727 146.261C228.86 145.73 228.992 145.181 229.106 144.632C229.295 143.855 229.447 143.04 229.561 142.188C229.674 141.544 229.769 140.881 229.826 140.218C229.845 140.123 229.845 140.029 229.845 139.934C229.939 139.214 229.996 138.456 230.034 137.698C230.205 134.573 230.034 131.693 229.598 129.041C229.542 128.7 229.485 128.378 229.409 128.056C229.352 127.659 229.276 127.28 229.182 126.901C228.708 124.893 228.102 123.017 227.363 121.294C227.174 120.82 226.965 120.346 226.738 119.873C226.454 119.267 226.151 118.679 225.829 118.111C225.601 117.694 225.355 117.278 225.109 116.861C224.787 116.312 224.446 115.8 224.105 115.289C223.84 114.91 223.574 114.531 223.309 114.171C223.006 113.754 222.684 113.356 222.381 112.959C222.381 112.94 222.362 112.94 222.343 112.921C222.021 112.523 221.699 112.144 221.377 111.784C221.055 111.405 220.733 111.045 220.392 110.704C220.07 110.363 219.729 110.022 219.407 109.7C219.104 109.397 218.801 109.113 218.498 108.829C218.195 108.564 217.892 108.299 217.607 108.033C216.717 107.257 215.846 106.594 215.012 105.988C213.667 105.002 212.436 104.226 211.47 103.695C211.091 103.449 210.75 103.279 210.466 103.146C210.314 103.07 210.182 103.013 210.068 102.938C209.784 102.805 209.575 102.71 209.481 102.654C209.443 102.635 209.405 102.616 209.405 102.616V25.3841C209.424 21.5576 211.072 19.398 213.724 18.1478C215.751 17.2006 218.119 17.0491 220.657 17.0491C223.196 17.0491 225.564 17.2006 227.59 18.1478C230.243 19.398 231.91 21.5576 231.91 25.403H231.928Z" fill="#84CEFF"/>
<path d="M220.503 222.451C219.461 230.123 213.74 237.17 205.973 242.096C200.593 245.524 194.209 247.911 187.674 248.783C181.214 249.635 174.641 249.01 168.75 246.471C160.812 243.043 154.012 235.977 150.318 224.175C149.731 222.338 147.798 221.315 145.98 221.902C145.014 222.205 144.275 222.887 143.877 223.777C141.907 228.115 140.922 232.946 141.339 238.25C141.699 242.967 143.157 248.025 145.999 253.386C152.288 265.244 162.688 271.59 169.564 275.796C171.023 276.686 172.254 277.444 173.163 278.031H173.088C168.03 280.153 160.926 279.395 153.33 276.534C145.601 273.617 137.493 268.559 130.446 262.062C123.437 255.602 117.489 247.722 114.042 239.159C110.48 230.332 109.647 220.728 113.132 211.199C113.776 209.419 112.905 207.429 111.181 206.729L111.162 206.71C109.382 205.971 107.374 206.842 106.654 208.661L106.597 208.812C102.6 218.019 95.4773 224.27 86.9718 228.134C78.6557 231.904 68.9946 233.42 59.523 233.173C50.0135 232.927 40.6935 230.881 33.1351 227.566C25.6904 224.327 20.0643 219.875 17.829 214.798L17.7911 214.742C18.833 214.95 20.2727 215.272 21.9018 215.651C29.7253 217.45 41.5648 220.14 54.2 215.992C59.9208 214.116 64.4104 211.483 67.877 208.339C71.7793 204.777 74.3745 200.591 75.89 196.101C76.534 194.264 75.5679 192.256 73.7683 191.631C72.7643 191.271 71.7035 191.404 70.8511 191.934C60.186 197.806 50.506 198.109 42.4741 195.041C36.4691 192.748 31.2787 188.562 27.2059 183.428C23.0763 178.2 20.0832 172.006 18.5299 165.754C16.2756 156.737 16.9765 147.645 21.4282 141.374L22.0344 143.723C23.7582 150.335 26.3155 160.204 34.3475 167.535C39.841 172.536 45.524 174.677 51.0175 174.79C57.3824 174.923 63.3874 172.328 68.5779 168.369C69.866 167.402 71.2489 166.872 69.8281 164.315C66.3426 157.154 64.3725 145.921 64.4672 135.881C64.8082 94.6226 98.5271 61.4719 139.767 61.8129C168.011 62.0592 192.448 77.9336 204.95 101.158C202.09 100.343 199.059 99.9267 195.933 99.9267L163.313 99.8888H116.845C107.468 99.8888 98.9628 103.772 92.8252 110.023H92.8063C86.6308 116.313 82.8421 124.97 82.8232 134.517C82.8232 144.064 86.6308 152.721 92.7873 158.992H92.8063C98.9628 165.281 107.449 169.164 116.826 169.164C116.826 169.164 132.871 169.827 138.403 168.274V169.732C138.403 180.909 147.476 190.172 158.445 190.172L191.955 190.362C191.955 190.362 192.012 190.324 192.107 190.248C185.685 196.575 177.994 201.576 169.299 204.815C167.708 205.478 167.594 206.482 168.068 209.096C169.147 215.518 171.705 221.523 176.346 225.842C180.4 229.631 185.95 232.056 193.338 232.302C204.155 232.662 212.717 227.301 218.476 223.721L220.503 222.451Z" fill="#84CEFF"/>
<path d="M234.618 2.68994C229.579 0.340978 224.711 0.0189432 220.998 0H220.467C216.319 0 211.412 0.322035 206.336 2.68994C197.451 6.83851 192.147 15.3251 192.147 25.4218V61.7549C176.879 50.9004 158.655 44.9333 139.693 44.7628H138.917C88.755 44.7628 47.5913 85.5855 47.1746 135.766C47.1177 143.059 47.9134 150.542 49.4478 157.418C48.2733 157.001 47.023 156.187 45.6591 154.956C41.3969 151.072 39.7867 144.935 38.366 139.498L37.7598 137.13C36.0928 130.708 30.8076 125.802 24.4238 124.646C23.4387 124.438 22.3968 124.343 21.2034 124.343C15.7099 124.343 10.5194 127.014 7.29908 131.523C0.157482 141.525 -1.8505 155.543 1.74871 169.921C3.90824 178.654 8.01892 187.008 13.6072 194.054C14.6112 195.324 15.653 196.536 16.7517 197.71C11.5045 197.957 6.61712 200.647 3.58621 204.985C-0.0319505 210.118 -0.505531 216.824 2.24124 222.299C6.23826 230.937 14.4786 238.192 26.0718 243.269C35.7329 247.493 47.364 249.994 58.9951 250.297H61.3062C73.051 250.316 84.2843 248.043 93.8317 243.743C94.8357 243.288 95.8018 242.814 96.749 242.322C97.1279 243.42 97.5257 244.519 97.9614 245.618C102.167 256.037 109.327 266.096 118.647 274.677C127.153 282.519 137.25 288.865 147.062 292.559C153.617 295.041 159.906 296.329 165.797 296.386H166.176C170.609 296.386 174.795 295.647 178.451 294.264C184.21 292.294 188.51 287.369 189.684 281.44C190.821 275.813 189.097 270.187 185.214 266.209C186.729 266.133 188.245 265.982 189.703 265.773C198.607 264.58 207.302 261.417 214.898 256.586C227.4 248.668 235.546 237.093 237.213 224.799C238.084 218.264 235.091 211.747 229.541 208.148C226.813 206.405 223.669 205.458 220.278 205.42C217.076 205.42 213.951 206.311 211.242 208.016L209.196 209.304C204.688 212.107 199.592 215.29 194.004 215.29H193.625C191.617 215.214 190.044 214.835 188.87 214.191C194.685 210.649 200.065 206.368 204.915 201.423C208.647 200.741 212.303 199.624 215.788 198.146C220.657 196.081 225.241 193.278 229.371 189.792L229.484 189.697L229.655 189.527L229.749 189.451L232.326 187.083C232.572 186.875 232.818 186.629 233.102 186.345C238.065 181.287 241.949 175.376 244.639 168.784C247.329 162.23 248.712 155.297 248.712 148.174L248.749 25.4786C248.749 15.4008 243.445 6.89534 234.561 2.72782L234.618 2.68994ZM243.085 148.136C243.085 154.482 241.873 160.695 239.448 166.587C237.043 172.478 233.576 177.782 229.105 182.329C228.954 182.48 228.802 182.632 228.651 182.764L226.055 185.132C225.942 185.227 225.828 185.322 225.733 185.416C222.058 188.504 217.986 191.024 213.591 192.88C209.916 194.452 206.07 195.532 202.13 196.1C195.86 202.787 188.529 208.281 180.516 212.316C181.274 214.21 182.372 216.085 183.926 217.544C186.237 219.704 189.381 220.802 193.53 220.954H194.022C201.145 221.011 207.283 217.184 212.246 214.096L214.273 212.827C216.148 211.653 218.27 211.084 220.391 211.103C222.532 211.122 224.635 211.728 226.491 212.922C230.204 215.328 232.193 219.666 231.606 224.042C230.166 234.631 222.987 244.747 211.886 251.774C204.972 256.169 197.053 259.049 188.984 260.128C186.521 260.469 184.058 260.621 181.634 260.602C175.363 260.545 169.434 259.333 164.016 256.984C163.202 256.643 162.368 256.245 161.535 255.809C165.949 260.413 171.139 263.576 175.307 266.114C176.898 267.1 178.167 267.876 179.133 268.501C183.073 271.04 185.062 275.719 184.134 280.303C183.338 284.338 180.44 287.577 176.633 288.884C173.393 290.116 169.775 290.741 165.873 290.703C160.682 290.646 155.037 289.49 149.089 287.236C139.921 283.789 130.487 277.84 122.512 270.49C113.798 262.458 107.13 253.1 103.247 243.477C101.939 240.181 100.954 236.866 100.291 233.551C97.5825 235.464 94.6274 237.131 91.4828 238.571C82.5037 242.625 71.8197 244.728 60.6053 244.633C60.0749 244.633 59.5445 244.614 59.0141 244.614C48.2543 244.33 37.362 242 28.3639 238.06C18.0588 233.551 10.8225 227.281 7.41274 219.912C5.53736 216.18 5.82151 211.71 8.24624 208.262C10.4247 205.136 13.9671 203.337 17.68 203.374C18.4188 203.374 19.1386 203.469 19.8774 203.602C21.0519 203.848 22.5673 204.189 24.2343 204.587C28.5344 205.553 33.8575 206.784 39.4836 206.822C40.1277 206.822 40.7528 206.822 41.3779 206.784C40.2982 206.481 39.2374 206.121 38.1955 205.723C30.6182 202.825 23.6471 197.578 18.0778 190.531C12.982 184.109 9.25023 176.513 7.28014 168.557C4.07873 155.77 5.76468 143.476 11.9212 134.8C14.1186 131.731 17.6421 129.969 21.3171 130.007C21.9801 130.007 22.6431 130.064 23.2872 130.197C27.663 130.992 31.1486 134.251 32.2663 138.551L32.8724 140.9C34.4068 146.791 36.3012 154.103 41.8326 159.142C44.9393 161.965 47.9512 163.366 51.0579 163.423H51.2095C53.0849 163.442 54.9224 162.969 56.6083 162.249C54.1646 154.482 52.7818 144.973 52.8575 135.804C53.2553 88.3512 92.2026 50.048 139.655 50.4458C161.611 50.6352 182.259 59.1597 197.811 73.727V25.4218C197.83 17.4846 201.789 11.0818 208.741 7.8425C212.833 5.92923 216.963 5.68297 220.467 5.68297H220.998C224.123 5.70191 228.196 5.96712 232.231 7.8425C239.145 11.0818 243.123 17.5035 243.123 25.4408L243.085 148.136Z" fill="white"/>
<path d="M394.696 224.986C414.494 224.625 424.659 217.675 424.832 203.76C425.005 192.339 418.416 185.578 404.861 183.256C398.806 182.362 392.029 181.467 384.702 180.401C371.509 178.267 361.516 173.451 354.738 165.779C347.6 158.108 344.212 148.664 344.212 137.431C344.212 124.05 348.667 113.35 357.594 105.161C366.159 97.1449 378.286 93.0346 393.974 92.8621C412.878 93.2229 429.46 98.5725 443.548 108.738L430.715 127.815C419.31 120.143 406.634 116.394 392.907 116.049C385.769 116.049 379.886 117.837 375.07 121.398C370.081 125.148 367.587 130.67 367.399 137.981C367.399 142.436 369.187 146.358 372.576 149.935C375.964 153.496 381.486 155.99 388.985 157.418C393.08 158.139 398.978 158.845 406.101 159.912C420.361 161.873 431.06 167.05 437.837 175.255C444.615 183.46 448.003 192.904 448.003 203.791C447.281 232.861 430.032 249.27 394.908 247.881C372.255 247.881 352.417 241.238 336.195 227.323L351.35 210.019C363.477 219.824 377.925 224.813 394.68 225.001" fill="white"/>
<path d="M466.786 138.121H488.718V149.715H489.079C496.217 141.149 505.661 136.882 517.427 136.882C526.526 136.882 534.731 140.098 542.214 146.342C549.524 152.758 553.446 162.218 553.807 174.69V246.917H531.875V182.189C531.875 174.517 529.914 168.807 525.82 164.885C521.898 160.775 516.721 158.814 510.493 158.814C504.265 158.814 499.088 160.775 494.977 164.885C490.883 168.807 488.734 174.69 488.734 182.189V246.917H466.802V138.121H466.786Z" fill="white"/>
<path d="M640.417 192.621C640.417 184.949 640.056 179.254 639.35 175.678C638.645 172.289 637.217 169.261 635.068 166.767C633.468 164.272 631.146 162.484 627.93 161.056C624.902 159.629 621.513 158.923 617.403 158.923C613.654 158.923 610.265 159.629 607.065 161.056C604.037 162.484 601.543 164.445 599.754 166.767C597.793 169.261 596.538 172.289 595.66 175.678C594.765 179.239 594.405 184.777 594.405 192.448C594.405 200.119 594.765 205.469 595.66 209.03C596.554 212.591 597.793 215.807 599.754 218.49C601.715 220.623 604.037 222.412 607.065 224.012C610.281 225.612 613.669 226.334 617.403 226.334C621.137 226.334 624.886 225.628 627.93 224.012C631.146 222.412 633.452 220.623 635.068 218.49C637.201 215.807 638.629 212.607 639.35 209.03C640.056 205.469 640.417 199.931 640.417 192.621ZM572.661 192.448C572.661 181.027 573.555 172.116 575.516 166.061C578.952 155.456 587.267 146.341 597.087 141.101C602.437 138.419 609.214 137.007 617.591 136.819C626.157 136.991 632.918 138.419 638.284 141.101C647.806 146.357 656.56 155.472 659.682 166.061C661.47 172.116 662.349 181.043 662.349 192.448C662.349 203.853 661.455 212.591 659.682 218.662C657.894 224.734 654.866 229.895 650.41 234.35C648.983 235.951 647.383 237.566 645.233 238.978C643.445 240.767 641.139 242.194 638.284 243.434C632.934 246.461 625.984 248.062 617.419 248.062C609.041 247.889 602.264 246.273 596.915 243.434C591.565 240.751 587.282 237.551 584.427 234.162C580.333 229.707 577.289 224.53 575.328 218.474C573.54 212.591 572.661 203.853 572.661 192.432" fill="white"/>
<path d="M681.91 138.121H703.842V149.715H704.203C711.341 141.149 720.785 136.882 732.551 136.882C741.289 137.054 748.96 139.737 755.377 145.259L739.501 164.163C734.873 160.602 730.056 158.641 725.24 158.641C719.718 158.641 714.902 160.429 710.98 164.163C706.524 167.724 704.203 173.435 704.03 181.467V246.917H681.91V138.121Z" fill="white"/>
<path d="M763.393 94.1809H785.324V189.234H785.685L827.415 138.06H853.63L816.182 180.496L858.791 246.84H831.337L802.44 196.011L785.324 215.449V246.84H763.393V94.1809Z" fill="white"/>
<path d="M889.118 163.63C893.213 159.536 898.578 157.386 905.167 157.386C911.756 157.386 917.105 159.52 921.216 163.63C925.498 167.913 927.632 174.329 927.993 182.707H882.341C882.702 174.329 885.024 167.913 889.118 163.63ZM979.873 80.7665V196.622C979.873 226.052 964.185 227.48 944.214 227.48H908.195C900.523 227.48 894.468 225.158 889.824 220.53C884.835 216.075 882.325 209.47 882.325 200.732H949.909V182.722C949.736 168.462 945.265 157.214 936.527 149.197C927.962 141.181 917.623 137.07 905.136 136.898C899.959 136.898 894.797 137.792 889.448 139.753C884.098 141.714 879.282 144.742 874.999 149.025C870.716 153.135 867.328 158.83 864.473 166.14C861.806 173.278 860.378 182.189 860.378 192.888C860.378 203.587 861.978 213.047 865.006 219.997C867.861 227.307 871.611 232.83 876.238 236.94C878.56 238.901 881.227 240.501 883.91 241.929C886.404 243.529 889.087 244.611 891.926 245.49C897.276 247.09 902.986 247.984 908.697 247.984H955.604C987.168 247.984 1000 225.88 1000 204.999V67.573L979.857 80.7665H979.873Z" fill="white"/>
</svg>
